HIERARCHY
ROOT Hips
{
 OFFSET 0.000000 0.000000 0.000000
 CHANNELS 6 Xposition Yposition Zposition Yrotation Xrotation Zrotation
 JOINT Chest
 {
  OFFSET 0.000000 9.585900 0.002600
  CHANNELS 3 Yrotation Xrotation Zrotation
  JOINT Chest2
  {
   OFFSET 0.000000 9.601200 -0.005300
   CHANNELS 3 Yrotation Xrotation Zrotation
   JOINT Chest3
   {
    OFFSET 0.000000 9.561800 0.000000
    CHANNELS 3 Yrotation Xrotation Zrotation
    JOINT Chest4
    {
     OFFSET 0.000000 9.552100 0.000000
     CHANNELS 3 Yrotation Xrotation Zrotation
     JOINT Neck
     {
      OFFSET 0.000000 14.453000 0.000000
      CHANNELS 3 Yrotation Xrotation Zrotation
      JOINT Head
      {
       OFFSET 0.000000 8.936500 -0.011300
       CHANNELS 3 Yrotation Xrotation Zrotation
       End Site
       {
        OFFSET 0.000000 17.073600 -0.006000
       }
      }
     }
     JOINT RightCollar
     {
      OFFSET -2.921100 9.558500 0.000000
      CHANNELS 3 Yrotation Xrotation Zrotation
      JOINT RightShoulder
      {
       OFFSET -13.519700 0.000000 0.000000
       CHANNELS 3 Yrotation Xrotation Zrotation
       JOINT RightElbow
       {
        OFFSET 0.000000 -29.696600 0.000000
        CHANNELS 3 Yrotation Xrotation Zrotation
        JOINT RightWrist
        {
         OFFSET 0.000000 -24.004700 0.000000
         CHANNELS 3 Yrotation Xrotation Zrotation
         End Site
         {
          OFFSET 0.000000 -17.728500 0.000000
         }
        }
       }
      }
     }
     JOINT LeftCollar
     {
      OFFSET 2.921100 9.558500 0.000000
      CHANNELS 3 Yrotation Xrotation Zrotation
      JOINT LeftShoulder
      {
       OFFSET 13.519700 0.000000 0.000000
       CHANNELS 3 Yrotation Xrotation Zrotation
       JOINT LeftElbow
       {
        OFFSET 0.000000 -29.696600 0.000000
        CHANNELS 3 Yrotation Xrotation Zrotation
        JOINT LeftWrist
        {
         OFFSET 0.000000 -24.004700 0.000000
         CHANNELS 3 Yrotation Xrotation Zrotation
         End Site
         {
          OFFSET 0.000000 -17.728500 0.000000
         }
        }
       }
      }
     }
    }
   }
  }
 }
 JOINT RightHip
 {
  OFFSET -7.771700 -0.012900 -0.001300
  CHANNELS 3 Yrotation Xrotation Zrotation
  JOINT RightKnee
  {
   OFFSET 0.000000 -40.869800 0.001200
   CHANNELS 3 Yrotation Xrotation Zrotation
   JOINT RightAnkle
   {
    OFFSET 0.000000 -39.717900 0.002100
    CHANNELS 3 Yrotation Xrotation Zrotation
    JOINT RightToe
    {
     OFFSET 0.000000 -4.965400 11.033500
     CHANNELS 3 Yrotation Xrotation Zrotation
     End Site
     {
      OFFSET 0.000000 -1.423100 5.872300
     }
    }
   }
  }
 }
 JOINT LeftHip
 {
  OFFSET 7.771700 -0.012900 -0.001300
  CHANNELS 3 Yrotation Xrotation Zrotation
  JOINT LeftKnee
  {
   OFFSET 0.000000 -40.869800 0.001200
   CHANNELS 3 Yrotation Xrotation Zrotation
   JOINT LeftAnkle
   {
    OFFSET 0.000000 -39.717900 0.002100
    CHANNELS 3 Yrotation Xrotation Zrotation
    JOINT LeftToe
    {
     OFFSET 0.000000 -4.965400 11.033500
     CHANNELS 3 Yrotation Xrotation Zrotation
     End Site
     {
      OFFSET 0.000000 -1.423100 5.872300
     }
    }
   }
  }
 }
}
MOTION
Frames: 5
Frame Time: 0.008333
-118.414715 57.950085 101.010428 -178.124845 -29.628662 -0.580359 2.314704 22.329443 3.149328 0.247368 3.164579 0.383590 0.398126 5.147514 0.635497 1.849976 18.877350 2.576286 -1.424472 14.375546 -2.368914 -1.769904 -9.104310 -3.905154 2.726565 -2.961964 -1.343570 7.693836 -18.916722 -19.203086 169.632029 -46.871676 -147.993274 15.490398 -12.201473 -49.499400 -9.141702 -4.394610 -3.711961 8.238630 -17.133537 4.808418 -161.957240 -44.684260 149.908389 -14.815331 -14.538949 39.799000 6.135128 -45.413292 -9.041632 -12.025361 69.464114 -14.372533 6.407345 21.933824 6.404616 -0.440690 -16.558481 3.107204 -7.314266 -43.050429 -2.441173 25.619285 63.611045 22.353255 -16.512438 6.649190 -1.641760 0.009788 0.004927 0.007033
-118.412655 57.951109 101.009081 -178.131402 -29.621400 -0.568280 2.304362 22.340628 3.141423 0.236522 3.180046 0.387173 0.405943 5.136280 0.629981 1.852709 18.868826 2.570485 -1.428939 14.378317 -2.378956 -1.758213 -9.122781 -3.937273 2.722950 -2.961397 -1.347372 7.684651 -18.907346 -19.198870 169.662302 -46.872633 -148.031664 15.427118 -12.152143 -49.439524 -9.163323 -4.382218 -3.687512 8.258772 -17.140410 4.776919 -161.965325 -44.680804 149.928466 -14.800542 -14.525285 39.806430 6.126535 -45.429258 -9.052418 -11.995473 69.473610 -14.348594 6.407277 21.944730 6.415429 -0.442866 -16.569113 3.088582 -7.301008 -43.054902 -2.456992 25.625318 63.605302 22.363043 -16.506436 6.646691 -1.642778 0.010534 0.006195 0.005836
-118.410615 57.951792 101.008275 -178.137954 -29.613560 -0.561144 2.295645 22.351471 3.137175 0.233032 3.186278 0.389378 0.407572 5.134315 0.628521 1.854894 18.861069 2.564374 -1.433915 14.380345 -2.387600 -1.748520 -9.142320 -3.968177 2.726882 -2.961083 -1.354586 7.668130 -18.895665 -19.188579 169.691168 -46.877543 -148.060272 15.414596 -12.132024 -49.416840 -9.167729 -4.382080 -3.677574 8.255812 -17.109272 4.746572 -162.006999 -44.674728 149.986109 -14.819762 -14.518253 39.802304 6.112659 -45.446862 -9.058056 -12.002996 69.479628 -14.349257 6.418015 21.955531 6.407837 -0.452804 -16.577429 3.079390 -7.290397 -43.060902 -2.469414 25.628757 63.599517 22.375900 -16.502268 6.646243 -1.648349 0.007819 0.006061 0.005257
-118.408674 57.951826 101.008575 -178.148094 -29.601073 -0.557296 2.291908 22.355819 3.138558 0.239428 3.179717 0.387198 0.401610 5.147695 0.632490 1.845907 18.863169 2.562544 -1.431028 14.372713 -2.403476 -1.741669 -9.163748 -3.997339 2.748938 -2.966554 -1.375544 7.617723 -18.854887 -19.154366 169.747709 -46.896265 -148.110891 15.442740 -12.150912 -49.393752 -9.155851 -4.400553 -3.681664 8.257554 -17.085917 4.726442 -162.052247 -44.679208 150.038764 -14.838339 -14.515435 39.792520 6.102377 -45.466856 -9.060726 -12.038239 69.478003 -14.363676 6.433485 21.965912 6.378939 -0.450150 -16.582011 3.078448 -7.281944 -43.071188 -2.474138 25.630838 63.593381 22.388508 -16.498120 6.647105 -1.653571 0.006182 0.005695 0.003327
-118.409158 57.951426 101.009680 -178.157487 -29.585939 -0.545264 2.287109 22.360085 3.134114 0.243580 3.171498 0.383254 0.397264 5.160713 0.635340 1.826746 18.899855 2.571544 -1.418171 14.326912 -2.431363 -1.737154 -9.179690 -4.011029 2.781919 -3.004258 -1.407049 7.582378 -18.823226 -19.129511 169.769533 -46.888352 -148.133409 15.434301 -12.143540 -49.371110 -9.133792 -4.455459 -3.694862 8.262598 -17.076389 4.714395 -162.059662 -44.671374 150.049842 -14.839600 -14.514183 39.789583 6.113102 -45.484497 -9.074211 -12.035893 69.479204 -14.361166 6.434507 21.973226 6.393428 -0.442144 -16.587687 3.058860 -7.263895 -43.085085 -2.492427 25.625760 63.587933 22.395040 -16.497491 6.647776 -1.657385 0.007372 0.006741 0.001792
